<svg width="46" height="40" viewBox="0 0 46 40" fill="none" xmlns="http://www.w3.org/2000/svg">
<path d="M28.152 10.3111H25.011C24.8995 10.3111 24.8059 10.3949 24.7964 10.5052C24.6232 12.2004 24.3575 14.0112 24.0016 15.9408C23.7359 17.3761 23.5829 18.5748 23.3247 20.0048C22.9687 21.98 22.7392 24.177 22.3535 26.1554C22.3418 26.2116 22.3843 26.2646 22.4417 26.2667C22.7254 26.2774 22.8731 26.2827 22.888 26.2827C25.6518 26.2657 28.8129 26.2742 32.3726 26.3102C32.5979 26.3113 32.7445 26.2933 32.8136 26.2508C32.8954 26.1999 32.9559 26.1235 32.9868 26.0312L33.8634 23.3739C33.8804 23.3198 33.8411 23.2647 33.7848 23.2647H26.2574C26.2351 23.2647 26.2181 23.2445 26.2224 23.2222L28.2774 10.4575C28.2901 10.38 28.2306 10.309 28.152 10.309V10.3111Z" fill="#111316"/>
<path d="M11.2325 14.7028H7.86411C7.8078 14.7028 7.76104 14.7432 7.75254 14.8004L7.30095 17.8566C6.96198 19.9592 6.6464 22.0553 6.35419 24.1441C6.3255 24.353 6.34887 24.5504 6.42219 24.7381C6.61877 25.2272 7.32539 26.4566 8.53992 28.4234C8.69293 28.6706 8.80025 28.87 8.864 29.0227C8.90332 29.1172 9.04145 29.1002 9.05739 28.9994L10.1986 21.9185C10.1997 21.9111 10.206 21.9058 10.2135 21.9058C12.3057 21.9206 14.4946 21.9206 16.7813 21.9047C19.204 21.8888 21.412 21.1685 22.192 18.6289C22.2717 18.3722 22.3726 17.8853 22.4959 17.1735C22.7137 15.9992 22.8624 14.9903 22.9411 14.147C23.1865 11.4865 20.9657 10.4638 18.6738 10.4182C15.7973 10.3641 12.396 10.3578 8.47085 10.3959C8.39647 10.397 8.3359 10.4543 8.33165 10.5275C8.26365 11.461 8.12126 12.3828 7.90449 13.2909C7.88537 13.3705 7.94487 13.4479 8.02669 13.45C10.9307 13.5317 14.2152 13.5603 17.8779 13.537C18.237 13.5338 18.5547 13.6314 18.831 13.8287C19.2667 14.1406 19.2784 14.7198 19.2061 15.2099C19.1657 15.4868 19.0531 16.1201 18.8703 17.1109C18.6451 18.3361 17.914 18.9387 16.6782 18.9196C15.3224 18.8994 13.3683 18.892 10.817 18.8994C10.7501 18.8994 10.7012 18.8411 10.7108 18.7764L11.3462 14.8333C11.3568 14.7654 11.3037 14.7028 11.2346 14.7028H11.2325Z" fill="url(#paint0_linear_400_389)"/>
<path d="M42.7808 3.5484C42.07 3.81148 41.6088 4.29839 41.3984 5.01126C41.3634 5.12689 41.272 5.21706 41.154 5.24782C37.7495 6.12405 34.9517 6.87723 32.7607 7.50947C32.1136 7.69511 31.288 7.86166 30.2828 8.01017C30.0415 8.04518 29.8248 8.0229 29.6325 7.94652C29.2691 7.80013 28.9758 7.81286 28.7293 7.82029C28.6432 7.82347 28.5996 7.92319 28.6581 7.98259L29.8513 9.20465C30.4241 9.82734 30.8735 10.3705 31.1987 10.833C31.6567 11.4801 31.968 11.9023 32.1338 12.0985C32.3282 12.3277 32.5163 12.3744 32.8085 12.3754C34.1909 12.3797 35.6807 12.3637 37.2788 12.3277C37.8005 12.3149 38.7165 12.1548 40.0266 11.8471C40.2136 11.8026 40.6907 11.7453 40.8278 11.7591C40.8979 11.7644 40.9596 11.8015 41.001 11.8567C41.7916 12.9175 42.8542 13.0395 43.7382 12.0328C44.1569 11.5565 44.0984 10.7831 43.7531 10.2814C43.1102 9.34786 41.5376 9.31073 41.0233 10.3843C40.9532 10.5307 40.9086 10.6166 40.8894 10.641C40.8661 10.6696 40.8331 10.6887 40.7949 10.693L37.1927 11.0483C37.1215 11.0558 37.0535 11.0165 37.0216 10.9507L36.6944 10.2633C36.6317 10.1329 36.4978 10.0491 36.3533 10.0501C34.9156 10.0607 33.4429 10.0544 31.9383 10.0331C31.7374 10.03 31.4643 9.82734 31.1169 9.42211C32.6576 9.23223 34.1622 9.14524 35.6286 9.16115C35.7157 9.16221 35.7721 9.06992 35.7317 8.99248C35.5946 8.73152 35.4246 8.52997 35.2216 8.3857C35.1674 8.34751 35.1813 8.26689 35.2439 8.24779L41.5079 6.35425C41.6216 6.32136 41.7438 6.35955 41.815 6.45396C42.5577 7.44052 44.2408 7.66435 45.0452 6.57702C46.2512 4.94867 44.6701 2.85145 42.783 3.54946L42.7808 3.5484ZM41.8872 10.6951C42.1295 10.4331 42.5481 10.4256 42.8244 10.6781C43.1007 10.9316 43.1283 11.3496 42.886 11.6127C42.6438 11.8747 42.2251 11.8821 41.9488 11.6297C41.6726 11.3761 41.6449 10.9582 41.8872 10.6951ZM43.4991 6.24074C43.0019 6.24074 42.5991 5.83869 42.5991 5.34223C42.5991 4.84577 43.0019 4.44372 43.4991 4.44372C43.9964 4.44372 44.3992 4.84577 44.3992 5.34223C44.3992 5.83869 43.9964 6.24074 43.4991 6.24074Z" fill="url(#paint1_linear_400_389)"/>
<path d="M38.9608 14.1597C38.8821 13.8828 38.7738 13.6356 38.6335 13.4161C38.5931 13.3535 38.5187 13.3216 38.4444 13.3365C38.1798 13.3885 37.9598 13.4161 37.7877 13.4192C36.774 13.432 35.6115 13.4574 34.3003 13.4914C34.2493 13.4924 34.2174 13.5476 34.2408 13.5932C34.8411 14.7357 35.263 15.9673 35.5021 17.2901C35.5881 17.7643 35.6391 18.4889 35.6519 19.4627C35.6668 20.5246 35.6508 21.2523 35.6051 21.6427C35.467 22.8477 35.2024 23.9287 34.8146 24.8866C34.0081 26.8809 32.9869 28.7702 31.4207 30.197C30.6184 30.9269 29.966 31.4732 29.4645 31.8328C27.0344 33.5789 24.3088 34.5007 21.289 34.5973C18.4285 34.6906 15.7444 34.1008 13.2399 32.831C12.5631 32.4873 12.0275 32.2083 11.6365 31.994C11.6057 31.9781 11.5664 31.9887 11.5494 32.0174H11.5483C11.5334 32.0418 11.5377 32.0736 11.56 32.0895C13.2176 33.3678 14.8465 34.1486 16.824 34.8487C20.1223 36.0166 23.7839 36.1567 27.0535 35.3738C29.6685 34.7479 32.0752 33.5099 34.2737 31.6567C36.3957 29.8671 37.9364 27.6002 38.8269 25.0744C39.8608 22.137 40.1774 19.2208 39.4836 16.1657C39.3603 15.6183 39.186 14.9489 38.9618 14.1586L38.9608 14.1597Z" fill="#111316"/>
<path d="M39.4984 26.3166C39.0138 27.3138 38.644 28.0351 38.3858 28.4796C37.2074 30.5057 35.5827 32.3516 33.6063 33.7253C31.2155 35.3876 28.5697 36.4802 25.6678 37.0053C25.1269 37.104 24.4915 37.1623 23.7626 37.1793C18.9172 37.2981 14.6095 35.8978 10.8395 32.9796C9.22011 31.7257 7.94076 30.4495 7.00037 29.1511C6.56684 28.5528 6.34582 28.1826 5.88147 27.4135C4.40767 24.9736 3.56823 22.363 3.3419 19.5041C3.15489 16.7407 3.59905 14.077 4.67332 11.5162C5.16848 10.3333 5.86554 9.21101 6.75917 8.1502C8.83333 5.69442 11.3559 3.73192 14.3917 2.7146C18.8737 1.21355 23.2717 1.42253 27.5879 3.34048C29.0086 3.97166 29.8012 4.32597 29.9691 4.40235C30.1434 4.48191 30.3166 4.48934 30.4877 4.42144C30.5812 4.38325 30.6131 4.26869 30.5536 4.18913C30.4388 4.03531 30.2964 3.8974 30.1296 3.77647C29.1903 3.09755 28.0905 2.37726 26.9897 1.86807C24.7848 0.850751 22.5024 0.252454 20.1434 0.0742372C18.7068 -0.0350264 17.4126 -0.0233573 16.2576 0.107122C12.581 0.525082 9.04797 2.30194 6.22894 4.68134C5.54039 5.26373 4.92409 5.89173 4.37898 6.56853C2.70011 8.65408 1.36125 11.0345 0.618508 13.624C0.480373 14.1077 0.364552 14.7187 0.269982 15.4571C0.136097 16.5094 0.0224002 17.2032 0.0255879 17.9521C-0.139112 20.8449 0.502687 23.7664 1.62159 26.4715C3.10282 30.0507 5.85703 33.1811 9.01928 35.4512C10.2072 36.3031 11.6077 37.0414 13.226 37.6641C15.8676 38.6804 18.5028 39.1853 21.1327 39.1811C24.6669 39.1726 27.8472 38.2338 30.9085 36.5354C32.2239 35.8056 33.396 34.9505 34.4235 33.9703C35.6157 32.8342 36.5773 31.7458 37.3094 30.7052C38.269 29.342 39.0043 27.894 39.5164 26.358C39.5196 26.3495 39.5175 26.3357 39.5132 26.3187C39.5122 26.3134 39.5026 26.3113 39.5005 26.3177L39.4984 26.3166Z" fill="url(#paint2_linear_400_389)"/>
<path d="M29.6142 5.60102C28.3295 4.94013 27.2839 4.44473 26.4806 4.11482C25.1768 3.63109 24.0866 3.32982 23.2132 3.20889C22.4205 3.09963 21.3292 3.0625 19.9415 3.09538C16.4286 3.17706 13.158 4.37578 10.3751 6.49741C10.3602 6.50908 10.3581 6.52923 10.3676 6.54408C10.3793 6.56318 10.4037 6.56742 10.4218 6.55681C11.9232 5.59147 13.4704 4.76192 15.2024 4.36942C17.03 3.9557 19.3114 3.82628 21.1273 4.16362C22.6553 4.44686 24.2237 5.01227 25.8324 5.86198L27.6335 7.11904C27.7684 7.21345 27.9289 7.26437 28.0925 7.26862C28.6929 7.28453 29.475 7.34712 30.104 7.22831C30.6544 7.12222 31.5491 7.08297 32.2281 6.87824C32.5469 6.78382 32.8837 6.67032 33.2365 6.53984C33.3342 6.50377 33.3438 6.37117 33.2556 6.32025L32.7583 6.03383C32.6924 5.99564 32.6978 5.89911 32.7658 5.86728L36.2542 4.21136C36.4242 4.12967 36.6187 4.12437 36.794 4.19226C37.1925 4.34926 37.5963 4.47974 38.0394 4.29092C38.5579 4.07133 38.899 3.67459 39.0626 3.0975C39.3814 1.98153 38.4219 0.823123 37.2467 1.04802C36.1575 1.25593 35.6942 1.93167 35.8536 3.07735C35.8621 3.14948 35.8228 3.2195 35.7548 3.24708C34.3596 3.81037 32.5522 4.58052 30.3356 5.56071C30.0498 5.68695 29.8075 5.69968 29.6131 5.59996L29.6142 5.60102ZM37.3986 1.95925C37.7928 1.95925 38.1127 2.27856 38.1127 2.67212C38.1127 3.06568 37.7928 3.38498 37.3986 3.38498C37.0044 3.38498 36.6846 3.06568 36.6846 2.67212C36.6846 2.27856 37.0044 1.95925 37.3986 1.95925Z" fill="url(#paint3_linear_400_389)"/>
<defs>
<linearGradient id="paint0_linear_400_389" x1="6.63683" y1="12.3585" x2="27.7612" y2="31.4106" gradientUnits="userSpaceOnUse">
<stop stop-color="#005C8A"/>
<stop offset="0.55" stop-color="#0077B3"/>
<stop offset="1" stop-color="#3B424A"/>
</linearGradient>
<linearGradient id="paint1_linear_400_389" x1="36.6997" y1="4.58163" x2="38.2651" y2="13.4785" gradientUnits="userSpaceOnUse">
<stop stop-color="#005C8A"/>
<stop offset="0.36" stop-color="#0077B3"/>
<stop offset="0.55" stop-color="#111316"/>
</linearGradient>
<linearGradient id="paint2_linear_400_389" x1="4.6255" y1="6.26407" x2="58.1665" y2="54.5529" gradientUnits="userSpaceOnUse">
<stop stop-color="#005C8A"/>
<stop offset="0.55" stop-color="#0077B3"/>
<stop offset="1" stop-color="#3B424A"/>
</linearGradient>
<linearGradient id="paint3_linear_400_389" x1="10.3602" y1="4.16044" x2="39.1243" y2="4.16044" gradientUnits="userSpaceOnUse">
<stop offset="0.45" stop-color="#111316"/>
<stop offset="0.64" stop-color="#0077B3"/>
<stop offset="1" stop-color="#0077B3"/>
</linearGradient>
</defs>
</svg>
